# xmcd
#
# Track frame offsets:
#	150
#	13820
#	30465
#	51861
#	68785
#	92375
#	108498
#	124481
#	141648
#	157067
#
# Disc length: 2510 seconds
#
# Revision: 0
# Processed by: cddbd v1.5.2PL0 Copyright (c) Steve Scherf et al.
# Submitted via: audiograbber 1.83.01
#
DISCID=8d09cc0a
DTITLE=Black Alice - Endangered Species
DYEAR=1983
DGENRE=Heavy Metal
TTITLE0=Wings Of Leather, Wings Of Steel
TTITLE1=Psycho
TTITLE2=Hell Has No Fury Like Rock And Roll
TTITLE3=Blade Of Slaughter
TTITLE4=In the Hall Of The Ancient Kings
TTITLE5=Roll The Dice
TTITLE6=Running Hot, Running Wild
TTITLE7=Rat Catchers Eyes
TTITLE8=Power Crazy
TTITLE9=No Warning
EXTD=
EXTT0=
EXTT1=
EXTT2=
EXTT3=
EXTT4=
EXTT5=
EXTT6=
EXTT7=
EXTT8=
EXTT9=
PLAYORDER=
